# xmcd
#
# Track frame offsets:
# 150
# 18868
# 34106
# 46665
# 68990
#
# Disc length: 1161 seconds
#
#
# Revision: 0
# Processed by: cddbd v1.5.2PL0 Copyright (c) Steve Scherf et al.
# Submitted via: FreeRIP 2.951 
#
DISCID=34048705
DTITLE=Vanessa Dakin - Self Titled
DYEAR=2005
DGENRE=Country
TTITLE0=Middle of a Rainy Day
TTITLE1=Rush of the Crush
TTITLE2=If You Love Me Really Love Me
TTITLE3=Me and Bobby McGee
TTITLE4=I Already Know
EXTD=
EXTT0=
EXTT1=
EXTT2=
EXTT3=
EXTT4=
PLAYORDER=
